<svg width="24" height="24" viewBox="0 0 24 24" fill="none" xmlns="http://www.w3.org/2000/svg">
  <path d="M7 3V5H9V7H7V9H5V7H3V5H5V3H7Z" fill="#2563eb"/>
  <path d="M7 15H9V17H7V19H5V17H3V15H5V13H7V15Z" fill="#2563eb"/>
  <path d="M19 15H21V17H19V19H17V17H15V15H17V13H19V15Z" fill="#2563eb"/>
  <path d="M19 3V5H21V7H19V9H17V7H15V5H17V3H19Z" fill="#2563eb"/>
  <path d="M11 1V3H13V5H11V7H9V5H7V3H9V1H11Z" fill="#1d4ed8"/>
  <path d="M17 11H19V13H17V15H15V13H13V11H15V9H17V11Z" fill="#1d4ed8"/>
  <path d="M11 21V23H13V21H15V19H13V17H11V19H9V21H11Z" fill="#1d4ed8"/>
  <path d="M5 11H7V13H5V15H3V13H1V11H3V9H5V11Z" fill="#1d4ed8"/>
</svg> 